<?xml version="1.0" encoding="UTF-8" standalone="no" ?>
<!DOCTYPE svg PUBLIC "-//W3C//DTD SVG 1.1//EN" "http://www.w3.org/Graphics/SVG/1.1/DTD/svg11.dtd">
<svg xmlns="http://www.w3.org/2000/svg" xmlns:xlink="http://www.w3.org/1999/xlink" version="1.1" width="1080" height="1080" viewBox="0 0 1080 1080" xml:space="preserve">
<desc>Created with Fabric.js 5.2.4</desc>
<defs>
</defs>
<g transform="matrix(1 0 0 1 540 540)" id="20788bf5-75ab-4558-b113-65e92572d555"  >
<rect style="stroke: none; stroke-width: 1; stroke-dasharray: none; stroke-linecap: butt; stroke-dashoffset: 0; stroke-linejoin: miter; stroke-miterlimit: 4; fill: rgb(255,255,255); fill-rule: nonzero; opacity: 1; visibility: hidden;" vector-effect="non-scaling-stroke"  x="-540" y="-540" rx="0" ry="0" width="1080" height="1080" />
</g>
<g transform="matrix(1 0 0 1 540 540)" id="d87ef371-2f35-4900-8cbf-a0988c47746b"  >
</g>
<g transform="matrix(1.7 0 0 1.7 521.48 540)"  >
<g style="" vector-effect="non-scaling-stroke"   >
		<g transform="matrix(1 0 0 1 0 -262.5)"  >
<line style="stroke: rgb(100,100,100); stroke-width: 1; stroke-dasharray: none; stroke-linecap: butt; stroke-dashoffset: 0; stroke-linejoin: miter; stroke-miterlimit: 4; fill: rgb(0,0,0); fill-rule: nonzero; opacity: 1;" vector-effect="non-scaling-stroke"  x1="-250" y1="-37.5" x2="250" y2="37.5" />
</g>
		<g transform="matrix(1 0 0 1 0 -187.5)"  >
<line style="stroke: rgb(100,100,100); stroke-width: 1; stroke-dasharray: none; stroke-linecap: butt; stroke-dashoffset: 0; stroke-linejoin: miter; stroke-miterlimit: 4; fill: rgb(0,0,0); fill-rule: nonzero; opacity: 1;" vector-effect="non-scaling-stroke"  x1="-250" y1="-112.5" x2="250" y2="112.5" />
</g>
		<g transform="matrix(1 0 0 1 0 -112.5)"  >
<line style="stroke: rgb(100,100,100); stroke-width: 1; stroke-dasharray: none; stroke-linecap: butt; stroke-dashoffset: 0; stroke-linejoin: miter; stroke-miterlimit: 4; fill: rgb(0,0,0); fill-rule: nonzero; opacity: 1;" vector-effect="non-scaling-stroke"  x1="-250" y1="-187.5" x2="250" y2="187.5" />
</g>
		<g transform="matrix(1 0 0 1 0 -37.5)"  >
<line style="stroke: rgb(100,100,100); stroke-width: 1; stroke-dasharray: none; stroke-linecap: butt; stroke-dashoffset: 0; stroke-linejoin: miter; stroke-miterlimit: 4; fill: rgb(0,0,0); fill-rule: nonzero; opacity: 1;" vector-effect="non-scaling-stroke"  x1="-250" y1="-262.5" x2="250" y2="262.5" />
</g>
		<g transform="matrix(1 0 0 1 0 -187.5)"  >
<line style="stroke: rgb(100,100,100); stroke-width: 1; stroke-dasharray: none; stroke-linecap: butt; stroke-dashoffset: 0; stroke-linejoin: miter; stroke-miterlimit: 4; fill: rgb(0,0,0); fill-rule: nonzero; opacity: 1;" vector-effect="non-scaling-stroke"  x1="250" y1="-37.5" x2="-250" y2="37.5" />
</g>
		<g transform="matrix(1 0 0 1 0 -112.5)"  >
<line style="stroke: rgb(100,100,100); stroke-width: 1; stroke-dasharray: none; stroke-linecap: butt; stroke-dashoffset: 0; stroke-linejoin: miter; stroke-miterlimit: 4; fill: rgb(0,0,0); fill-rule: nonzero; opacity: 1;" vector-effect="non-scaling-stroke"  x1="250" y1="-112.5" x2="-250" y2="112.5" />
</g>
		<g transform="matrix(1 0 0 1 0 -37.5)"  >
<line style="stroke: rgb(100,100,100); stroke-width: 1; stroke-dasharray: none; stroke-linecap: butt; stroke-dashoffset: 0; stroke-linejoin: miter; stroke-miterlimit: 4; fill: rgb(0,0,0); fill-rule: nonzero; opacity: 1;" vector-effect="non-scaling-stroke"  x1="250" y1="-187.5" x2="-250" y2="187.5" />
</g>
		<g transform="matrix(1 0 0 1 0 37.5)"  >
<line style="stroke: rgb(100,100,100); stroke-width: 1; stroke-dasharray: none; stroke-linecap: butt; stroke-dashoffset: 0; stroke-linejoin: miter; stroke-miterlimit: 4; fill: rgb(0,0,0); fill-rule: nonzero; opacity: 1;" vector-effect="non-scaling-stroke"  x1="250" y1="-262.5" x2="-250" y2="262.5" />
</g>
		<g transform="matrix(1 0 0 1 0 -112.5)"  >
<line style="stroke: rgb(100,100,100); stroke-width: 1; stroke-dasharray: none; stroke-linecap: butt; stroke-dashoffset: 0; stroke-linejoin: miter; stroke-miterlimit: 4; fill: rgb(0,0,0); fill-rule: nonzero; opacity: 1;" vector-effect="non-scaling-stroke"  x1="-250" y1="-37.5" x2="250" y2="37.5" />
</g>
		<g transform="matrix(1 0 0 1 0 -37.5)"  >
<line style="stroke: rgb(100,100,100); stroke-width: 1; stroke-dasharray: none; stroke-linecap: butt; stroke-dashoffset: 0; stroke-linejoin: miter; stroke-miterlimit: 4; fill: rgb(0,0,0); fill-rule: nonzero; opacity: 1;" vector-effect="non-scaling-stroke"  x1="-250" y1="-112.5" x2="250" y2="112.5" />
</g>
		<g transform="matrix(1 0 0 1 0 37.5)"  >
<line style="stroke: rgb(100,100,100); stroke-width: 1; stroke-dasharray: none; stroke-linecap: butt; stroke-dashoffset: 0; stroke-linejoin: miter; stroke-miterlimit: 4; fill: rgb(0,0,0); fill-rule: nonzero; opacity: 1;" vector-effect="non-scaling-stroke"  x1="-250" y1="-187.5" x2="250" y2="187.5" />
</g>
		<g transform="matrix(1 0 0 1 0 -37.5)"  >
<line style="stroke: rgb(100,100,100); stroke-width: 1; stroke-dasharray: none; stroke-linecap: butt; stroke-dashoffset: 0; stroke-linejoin: miter; stroke-miterlimit: 4; fill: rgb(0,0,0); fill-rule: nonzero; opacity: 1;" vector-effect="non-scaling-stroke"  x1="250" y1="-37.5" x2="-250" y2="37.5" />
</g>
		<g transform="matrix(1 0 0 1 0 37.5)"  >
<line style="stroke: rgb(100,100,100); stroke-width: 1; stroke-dasharray: none; stroke-linecap: butt; stroke-dashoffset: 0; stroke-linejoin: miter; stroke-miterlimit: 4; fill: rgb(0,0,0); fill-rule: nonzero; opacity: 1;" vector-effect="non-scaling-stroke"  x1="250" y1="-112.5" x2="-250" y2="112.5" />
</g>
		<g transform="matrix(1 0 0 1 0 112.5)"  >
<line style="stroke: rgb(100,100,100); stroke-width: 1; stroke-dasharray: none; stroke-linecap: butt; stroke-dashoffset: 0; stroke-linejoin: miter; stroke-miterlimit: 4; fill: rgb(0,0,0); fill-rule: nonzero; opacity: 1;" vector-effect="non-scaling-stroke"  x1="250" y1="-187.5" x2="-250" y2="187.5" />
</g>
		<g transform="matrix(1 0 0 1 0 37.5)"  >
<line style="stroke: rgb(100,100,100); stroke-width: 1; stroke-dasharray: none; stroke-linecap: butt; stroke-dashoffset: 0; stroke-linejoin: miter; stroke-miterlimit: 4; fill: rgb(0,0,0); fill-rule: nonzero; opacity: 1;" vector-effect="non-scaling-stroke"  x1="-250" y1="-37.5" x2="250" y2="37.5" />
</g>
		<g transform="matrix(1 0 0 1 0 112.5)"  >
<line style="stroke: rgb(100,100,100); stroke-width: 1; stroke-dasharray: none; stroke-linecap: butt; stroke-dashoffset: 0; stroke-linejoin: miter; stroke-miterlimit: 4; fill: rgb(0,0,0); fill-rule: nonzero; opacity: 1;" vector-effect="non-scaling-stroke"  x1="-250" y1="-112.5" x2="250" y2="112.5" />
</g>
		<g transform="matrix(1 0 0 1 0 112.5)"  >
<line style="stroke: rgb(100,100,100); stroke-width: 1; stroke-dasharray: none; stroke-linecap: butt; stroke-dashoffset: 0; stroke-linejoin: miter; stroke-miterlimit: 4; fill: rgb(0,0,0); fill-rule: nonzero; opacity: 1;" vector-effect="non-scaling-stroke"  x1="250" y1="-37.5" x2="-250" y2="37.5" />
</g>
		<g transform="matrix(1 0 0 1 0 187.5)"  >
<line style="stroke: rgb(100,100,100); stroke-width: 1; stroke-dasharray: none; stroke-linecap: butt; stroke-dashoffset: 0; stroke-linejoin: miter; stroke-miterlimit: 4; fill: rgb(0,0,0); fill-rule: nonzero; opacity: 1;" vector-effect="non-scaling-stroke"  x1="250" y1="-112.5" x2="-250" y2="112.5" />
</g>
		<g transform="matrix(1 0 0 1 0 187.5)"  >
<line style="stroke: rgb(100,100,100); stroke-width: 1; stroke-dasharray: none; stroke-linecap: butt; stroke-dashoffset: 0; stroke-linejoin: miter; stroke-miterlimit: 4; fill: rgb(0,0,0); fill-rule: nonzero; opacity: 1;" vector-effect="non-scaling-stroke"  x1="-250" y1="-37.5" x2="250" y2="37.5" />
</g>
		<g transform="matrix(1 0 0 1 0 262.5)"  >
<line style="stroke: rgb(100,100,100); stroke-width: 1; stroke-dasharray: none; stroke-linecap: butt; stroke-dashoffset: 0; stroke-linejoin: miter; stroke-miterlimit: 4; fill: rgb(0,0,0); fill-rule: nonzero; opacity: 1;" vector-effect="non-scaling-stroke"  x1="250" y1="-37.5" x2="-250" y2="37.5" />
</g>
		<g transform="matrix(1 0 0 1 -250 -300)"  >
<circle style="stroke: rgb(0,0,0); stroke-width: 1; stroke-dasharray: none; stroke-linecap: butt; stroke-dashoffset: 0; stroke-linejoin: miter; stroke-miterlimit: 4; fill: rgb(100,149,237); fill-rule: nonzero; opacity: 1;" vector-effect="non-scaling-stroke"  cx="0" cy="0" r="10" />
</g>
		<g transform="matrix(1 0 0 1 250 -225)"  >
<circle style="stroke: rgb(0,0,0); stroke-width: 1; stroke-dasharray: none; stroke-linecap: butt; stroke-dashoffset: 0; stroke-linejoin: miter; stroke-miterlimit: 4; fill: rgb(100,149,237); fill-rule: nonzero; opacity: 1;" vector-effect="non-scaling-stroke"  cx="0" cy="0" r="10" />
</g>
		<g transform="matrix(1 0 0 1 -250 -150)"  >
<circle style="stroke: rgb(0,0,0); stroke-width: 1; stroke-dasharray: none; stroke-linecap: butt; stroke-dashoffset: 0; stroke-linejoin: miter; stroke-miterlimit: 4; fill: rgb(100,149,237); fill-rule: nonzero; opacity: 1;" vector-effect="non-scaling-stroke"  cx="0" cy="0" r="10" />
</g>
		<g transform="matrix(1 0 0 1 250 -75)"  >
<circle style="stroke: rgb(0,0,0); stroke-width: 1; stroke-dasharray: none; stroke-linecap: butt; stroke-dashoffset: 0; stroke-linejoin: miter; stroke-miterlimit: 4; fill: rgb(100,149,237); fill-rule: nonzero; opacity: 1;" vector-effect="non-scaling-stroke"  cx="0" cy="0" r="10" />
</g>
		<g transform="matrix(1 0 0 1 -250 0)"  >
<circle style="stroke: rgb(0,0,0); stroke-width: 1; stroke-dasharray: none; stroke-linecap: butt; stroke-dashoffset: 0; stroke-linejoin: miter; stroke-miterlimit: 4; fill: rgb(100,149,237); fill-rule: nonzero; opacity: 1;" vector-effect="non-scaling-stroke"  cx="0" cy="0" r="10" />
</g>
		<g transform="matrix(1 0 0 1 250 75)"  >
<circle style="stroke: rgb(0,0,0); stroke-width: 1; stroke-dasharray: none; stroke-linecap: butt; stroke-dashoffset: 0; stroke-linejoin: miter; stroke-miterlimit: 4; fill: rgb(100,149,237); fill-rule: nonzero; opacity: 1;" vector-effect="non-scaling-stroke"  cx="0" cy="0" r="10" />
</g>
		<g transform="matrix(1 0 0 1 -250 150)"  >
<circle style="stroke: rgb(0,0,0); stroke-width: 1; stroke-dasharray: none; stroke-linecap: butt; stroke-dashoffset: 0; stroke-linejoin: miter; stroke-miterlimit: 4; fill: rgb(100,149,237); fill-rule: nonzero; opacity: 1;" vector-effect="non-scaling-stroke"  cx="0" cy="0" r="10" />
</g>
		<g transform="matrix(1 0 0 1 250 225)"  >
<circle style="stroke: rgb(0,0,0); stroke-width: 1; stroke-dasharray: none; stroke-linecap: butt; stroke-dashoffset: 0; stroke-linejoin: miter; stroke-miterlimit: 4; fill: rgb(100,149,237); fill-rule: nonzero; opacity: 1;" vector-effect="non-scaling-stroke"  cx="0" cy="0" r="10" />
</g>
		<g transform="matrix(1 0 0 1 -250 300)"  >
<circle style="stroke: rgb(0,0,0); stroke-width: 1; stroke-dasharray: none; stroke-linecap: butt; stroke-dashoffset: 0; stroke-linejoin: miter; stroke-miterlimit: 4; fill: rgb(100,149,237); fill-rule: nonzero; opacity: 1;" vector-effect="non-scaling-stroke"  cx="0" cy="0" r="10" />
</g>
</g>
</g>
<g transform="matrix(1 0 0 1 540 540)" style="" id="6fd3d64c-a331-4d20-ac5a-906ddbd9e782"  >
		<text xml:space="preserve" font-family="Lato" font-size="200" font-style="normal" font-weight="400" style="stroke: none; stroke-width: 1; stroke-dasharray: none; stroke-linecap: butt; stroke-dashoffset: 0; stroke-linejoin: miter; stroke-miterlimit: 4; fill: rgb(255,255,255); fill-rule: nonzero; opacity: 1; white-space: pre;" ><tspan x="-405.2" y="-106.67" style="white-space: pre; ">k-partite </tspan><tspan x="-273.3" y="232.33" >Graph</tspan></text>
</g>
</svg>